<svg width="110" height="86" viewBox="0 0 110 86" fill="none" xmlns="http://www.w3.org/2000/svg">
<path fill-rule="evenodd" clip-rule="evenodd" d="M57.2226 9.21419C57.0901 13.5913 64.752 23.0801 70.5263 26.628C66.2968 35.5924 58.5895 38.1085 58.5895 38.1028C59.8144 32.1846 59.8826 24.2672 54.6138 16.5675C51.3574 11.8117 52.1488 8.36981 52.6221 6.88364C54.699 0.355811 61.4975 0.490229 61.4975 0.490229C61.5534 0.496014 61.629 0.493422 61.7277 0.490034C62.3073 0.47014 63.6864 0.422805 66.5903 1.88364C67.9572 2.57088 69.0041 3.98701 69.0041 3.98701C69.0041 3.98701 69.0534 5.22517 68.6974 6.32892C68.4456 7.10704 67.9988 7.89083 67.641 8.402C64.9034 12.3039 59.6157 11.5845 57.2226 9.21419ZM63.1238 3.76171C62.997 5.66061 65.1817 6.66781 66.5183 5.84615C66.4331 4.02109 65.2423 3.57429 64.3373 3.47962C63.6804 3.41147 63.1238 3.76171 63.1238 3.76171ZM50.46 8.93029C50.6815 5.95793 51.9992 3.04994 55.6493 0.742107C52.2889 0.97876 46.8156 2.22639 44.0022 3.33393C36.7285 6.19648 30.5547 11.2457 26.2912 17.6732C22.3154 23.6633 20 30.8519 20 38.58V38.6463C20 38.6463 29.4585 28.8318 43.8072 33.5213C46.3151 34.3406 48.1253 35.2701 49.6716 36.0641C50.5229 36.5012 51.2942 36.8973 52.0579 37.2112C54.6175 38.262 56.6717 38.51 56.6717 38.51C58.7533 28.3927 56.1558 23.0799 53.9552 18.5791L53.9547 18.578C53.8618 18.388 53.7696 18.1995 53.6785 18.0121C53.3338 17.3022 52.9396 16.6434 52.5475 15.988C51.3761 14.0302 50.2227 12.1023 50.4581 8.93218L50.46 8.93029ZM94 38.2487C94 38.2487 93.7179 17.2415 70.4806 5.14003C70.4806 5.14003 70.5317 6.27596 69.5756 8.30738C68.9508 9.63642 67.2261 10.7553 67.2261 10.7553C67.2261 10.7553 89.6911 14.7822 94 38.2487Z" fill="#0E0E0C"/>
<path d="M19.7335 78V50.448H31.2535V44.4H0.91748V50.448H12.4375V78H19.7335Z" fill="#0E0E0C"/>
<path d="M41.878 78V66.624C41.878 64.08 41.926 58.896 46.678 58.896C49.03 58.896 50.518 60.24 50.518 63.408V78H57.334V62.112C57.334 56.784 54.454 53.28 49.174 53.28C45.334 53.28 42.934 56.112 41.83 59.52H38.854C40.342 57.408 41.878 54.624 41.878 49.488V44.4H35.062V78H41.878Z" fill="#0E0E0C"/>
<path d="M74.6946 78.768C82.0386 78.768 87.3186 73.824 87.3186 66C87.3186 58.32 82.0386 53.28 74.6946 53.28C67.3506 53.28 62.0706 58.32 62.0706 66C62.0706 73.392 67.3506 78.768 74.6946 78.768ZM74.6946 73.344C71.4306 73.344 69.1746 71.04 69.1746 66.096C69.1746 61.152 71.4306 58.656 74.6946 58.656C77.9586 58.656 80.2146 61.152 80.2146 66.096C80.2146 71.04 77.9586 73.344 74.6946 73.344Z" fill="#0E0E0C"/>
<path d="M108.528 78V72.576H103.344C101.856 72.576 101.232 71.904 101.232 70.464V59.184H107.472V54H101.232V46.464H94.4162V54H89.3762V59.184H94.4162V71.712C94.4162 75.456 96.6242 78 100.512 78H108.528Z" fill="#0E0E0C"/>
</svg>
