<svg width="203" height="49" viewBox="0 0 203 49" fill="none" xmlns="http://www.w3.org/2000/svg">
<path fill-rule="evenodd" clip-rule="evenodd" d="M47.2828 11.0894C47.1145 16.6495 56.8471 28.7029 64.182 33.2096C58.8095 44.5968 49.0191 47.793 49.0191 47.7857C50.5751 40.268 50.6617 30.2107 43.9688 20.43C39.8324 14.3889 40.8377 10.0168 41.4389 8.12894C44.0771 -0.163156 52.7131 0.0075914 52.7131 0.0075914C52.7841 0.0149396 52.88 0.0116471 53.0054 0.00734395C53.7417 -0.0179276 55.4935 -0.0780556 59.1822 1.7776C60.9186 2.65058 62.2485 4.44944 62.2485 4.44944C62.2485 4.44944 62.311 6.02225 61.8589 7.4243C61.539 8.41272 60.9715 9.40835 60.517 10.0577C57.0395 15.0142 50.3226 14.1003 47.2828 11.0894ZM54.7789 4.16326C54.6177 6.57537 57.393 7.85478 59.0909 6.81105C58.9826 4.49273 57.47 3.92517 56.3204 3.80493C55.4859 3.71835 54.7789 4.16326 54.7789 4.16326ZM38.6924 10.7287C38.9738 6.95304 40.6476 3.25912 45.2843 0.327543C41.0156 0.628156 34.063 2.21299 30.4893 3.61985C21.2497 7.25606 13.4073 13.6699 7.99148 21.8346C2.94119 29.4437 0 38.5751 0 48.3919V48.476C0 48.476 12.0149 36.009 30.2416 41.966C33.4273 43.0067 35.7267 44.1874 37.6909 45.1959C38.7723 45.7512 39.7521 46.2543 40.7222 46.6531C43.9736 47.9879 46.5829 48.3029 46.5829 48.3029C49.2271 35.4512 45.9275 28.7026 43.1323 22.9854C43.014 22.7435 42.8967 22.5036 42.7808 22.265C42.3429 21.3633 41.8422 20.5265 41.3441 19.694C39.8561 17.207 38.3909 14.758 38.69 10.7311L38.6924 10.7287ZM94 47.971C94 47.971 93.6417 21.2862 64.1239 5.91408C64.1239 5.91408 64.1889 7.35702 62.9744 9.93748C62.1808 11.6257 59.9899 13.047 59.9899 13.047C59.9899 13.047 88.5264 18.1622 94 47.971Z" fill="white"/>
<path d="M112.733 41V13.448H124.253V7.40002H93.9175V13.448H105.437V41H112.733Z" fill="white"/>
<path d="M134.878 41V29.624C134.878 27.08 134.926 21.896 139.678 21.896C142.03 21.896 143.518 23.24 143.518 26.408V41H150.334V25.112C150.334 19.784 147.454 16.28 142.174 16.28C138.334 16.28 135.934 19.112 134.83 22.52H131.854C133.342 20.408 134.878 17.624 134.878 12.488V7.40002H128.062V41H134.878Z" fill="white"/>
<path d="M167.695 41.768C175.039 41.768 180.319 36.824 180.319 29C180.319 21.32 175.039 16.28 167.695 16.28C160.351 16.28 155.071 21.32 155.071 29C155.071 36.392 160.351 41.768 167.695 41.768ZM167.695 36.344C164.431 36.344 162.175 34.04 162.175 29.096C162.175 24.152 164.431 21.656 167.695 21.656C170.959 21.656 173.215 24.152 173.215 29.096C173.215 34.04 170.959 36.344 167.695 36.344Z" fill="white"/>
<path d="M201.528 41V35.576H196.344C194.856 35.576 194.232 34.904 194.232 33.464V22.184H200.472V17H194.232V9.46403H187.416V17H182.376V22.184H187.416V34.712C187.416 38.456 189.624 41 193.512 41H201.528Z" fill="white"/>
</svg>
