<?xml version="1.0" encoding="UTF-8" standalone="no"?>
<svg
   id="svg"
   version="1.1"
   width="400"
   height="400"
   viewBox="0, 0, 400,400"
   sodipodi:docname="logo.svg"
   inkscape:version="1.1.1 (eb90963e84, 2021-10-02)"
   xmlns:inkscape="http://www.inkscape.org/namespaces/inkscape"
   xmlns:sodipodi="http://sodipodi.sourceforge.net/DTD/sodipodi-0.dtd"
   xmlns="http://www.w3.org/2000/svg"
   xmlns:svg="http://www.w3.org/2000/svg">
  <defs
     id="defs1075" />
  <sodipodi:namedview
     id="namedview1073"
     pagecolor="#ffffff"
     bordercolor="#666666"
     borderopacity="1.0"
     inkscape:pageshadow="2"
     inkscape:pageopacity="0.0"
     inkscape:pagecheckerboard="0"
     showgrid="false"
     inkscape:zoom="1.7975"
     inkscape:cx="200"
     inkscape:cy="200"
     inkscape:window-width="1600"
     inkscape:window-height="836"
     inkscape:window-x="0"
     inkscape:window-y="0"
     inkscape:window-maximized="1"
     inkscape:current-layer="svgg" />
  <g
     id="svgg">
    <path
       id="path0"
       d="M156.250 87.508 C 91.433 96.261,32.403 156.528,12.398 234.375 C 5.823 259.960,4.880 300.000,10.853 300.000 C 13.041 300.000,13.677 296.845,15.039 279.225 C 17.344 249.425,25.879 234.525,46.699 223.959 C 49.804 222.383,54.021 219.863,56.070 218.359 C 61.100 214.668,64.803 214.920,67.572 219.141 C 73.993 228.930,86.346 239.368,101.806 248.069 C 116.468 256.320,154.955 263.569,176.950 262.221 L 185.156 261.719 185.593 282.517 L 186.030 303.316 191.062 302.830 L 196.094 302.344 196.094 259.375 L 196.094 216.406 187.500 200.347 C 162.232 153.127,160.938 149.713,160.938 130.298 C 160.938 111.770,162.834 107.327,175.405 96.403 L 184.753 88.281 177.923 87.225 C 169.766 85.964,167.460 85.994,156.250 87.508 M200.173 92.337 C 176.406 99.586,166.017 116.771,170.973 140.640 C 173.311 151.901,175.391 156.550,193.654 191.328 C 206.203 215.226,207.760 223.552,207.789 266.906 L 207.813 303.342 211.328 302.843 C 214.740 302.358,214.890 301.575,216.406 276.297 C 217.266 261.972,218.320 249.932,218.750 249.543 C 219.180 249.154,221.871 247.645,224.730 246.190 C 227.980 244.536,232.293 239.776,236.233 233.491 L 242.537 223.438 250.565 223.393 L 258.594 223.349 252.186 219.878 C 220.308 202.607,218.991 201.654,208.582 188.323 C 191.964 167.042,187.860 154.550,192.270 138.672 C 194.175 131.810,193.727 131.940,201.620 135.967 C 216.969 143.797,228.760 141.597,244.922 127.888 C 258.161 116.658,258.438 115.342,249.517 106.032 C 237.331 93.314,216.198 87.449,200.173 92.337 M236.664 103.287 C 244.924 110.539,243.162 113.977,231.152 114.041 C 225.457 114.072,215.283 102.425,218.337 99.372 C 221.204 96.504,231.427 98.688,236.664 103.287 M226.563 106.250 C 226.563 108.333,227.604 109.375,229.688 109.375 C 233.396 109.375,233.882 105.432,230.341 104.073 C 226.756 102.698,226.563 102.809,226.563 106.250 M255.610 129.129 C 245.380 137.551,245.272 137.039,257.901 139.985 C 268.831 142.535,313.974 157.461,316.406 159.330 C 317.266 159.990,320.500 161.345,323.594 162.340 C 336.460 166.480,377.297 189.950,385.658 198.010 C 389.154 201.379,389.432 200.220,386.212 195.703 C 370.769 174.040,330.869 147.666,281.769 126.665 C 267.213 120.439,266.030 120.551,255.610 129.129 "
       stroke="none"
       fill="#000000"
       fill-rule="evenodd" />
  </g>
</svg>
