<svg width="94" height="50" viewBox="0 0 94 50" fill="none" xmlns="http://www.w3.org/2000/svg">
<path fill-rule="evenodd" clip-rule="evenodd" d="M47.2828 11.7045C47.1144 17.2646 56.8471 29.318 64.182 33.8248C58.8095 45.212 49.0191 48.4081 49.0191 48.4009C50.5751 40.8832 50.6617 30.8259 43.9688 21.0451C39.8324 15.004 40.8376 10.6319 41.4389 8.74405C44.077 0.451956 52.713 0.622704 52.713 0.622704C52.7841 0.630052 52.88 0.626759 53.0054 0.622456C53.7417 0.597185 55.4935 0.537057 59.1822 2.39271C60.9186 3.26569 62.2485 5.06456 62.2485 5.06456C62.2485 5.06456 62.311 6.63736 61.8589 8.03942C61.539 9.02783 60.9715 10.0235 60.5169 10.6728C57.0395 15.6293 50.3226 14.7154 47.2828 11.7045ZM54.7788 4.77837C54.6177 7.19049 57.393 8.4699 59.0908 7.42617C58.9826 5.10784 57.4699 4.54029 56.3204 4.42004C55.4859 4.33347 54.7788 4.77837 54.7788 4.77837ZM38.6924 11.3439C38.9738 7.56816 40.6476 3.87423 45.2843 0.942657C41.0156 1.24327 34.063 2.8281 30.4893 4.23497C21.2497 7.87118 13.4073 14.285 7.99148 22.4497C2.94119 30.0588 0 39.1902 0 49.007V49.0912C0 49.0912 12.0149 36.6242 30.2416 42.5811C33.4273 43.6218 35.7267 44.8025 37.6909 45.8111L37.6909 45.8111C38.7723 46.3664 39.7521 46.8695 40.7222 47.2683C43.9736 48.603 46.5829 48.918 46.5829 48.918C49.2271 36.0663 45.9276 29.3177 43.1323 23.6005C43.014 23.3587 42.8967 23.1187 42.7808 22.8802C42.3429 21.9785 41.8422 21.1417 41.3441 20.3091L41.3441 20.3091C39.8561 17.8221 38.3909 15.3732 38.69 11.3463L38.6924 11.3439ZM94 48.5861C94 48.5861 93.6417 21.9013 64.1239 6.5292C64.1239 6.5292 64.1889 7.97214 62.9744 10.5526C62.1808 12.2408 59.9899 13.6621 59.9899 13.6621C59.9899 13.6621 88.5264 18.7774 94 48.5861Z" fill="white"/>
</svg>
